# xmcd
#
# Track frame offsets:
#	150
#	24515
#	47472
#	68422
#	89487
#	114857
#	138667
#	162837
#	192392
#	208962
#
# Disc length: 2988 seconds
# Revision: 0
# Processed by: cddbd v1.5.2PL0 Copyright (c) Steve Scherf et al.
# Submitted via: dBpowerAMP V12.0
#
DISCID=850baa0a
DTITLE=Phuong Dung - Noi buon gac tro
DYEAR=1999
DGENRE=Country
TTITLE0=Thiep hong anh viet ten em
TTITLE1=Dan va giay
TTITLE2=Gio chuyen mua thuong
TTITLE3=Noi buon gac tro
TTITLE4=Sau tim thiep hong
TTITLE5=Biet dau tim
TTITLE6=Chiec bong cong vien
TTITLE7=Thuong ve mua dong
TTITLE8=Mua xuan tren cao
TTITLE9=Mot phut suy tu
EXTD=
EXTT0=
EXTT1=
EXTT2=
EXTT3=
EXTT4=
EXTT5=
EXTT6=
EXTT7=
EXTT8=
EXTT9=
PLAYORDER=
